<svg xmlns="http://www.w3.org/2000/svg" viewBox="0 0 400 260" width="400" height="260" role="img" aria-label="Cafe">
  <defs>
    <linearGradient id="fbg" x1="0" y1="0" x2="0" y2="1"><stop offset="0" stop-color="#f1e7d6"/><stop offset="1" stop-color="#d9c2a3"/></linearGradient>
  </defs>
  <rect width="400" height="260" fill="url(#fbg)"/>
  <!-- steam -->
  <g stroke="#b79a72" stroke-width="4" fill="none" stroke-linecap="round" opacity="0.7">
    <path d="M178 78 q -10 -14 0 -28 q 10 -14 0 -28"/>
    <path d="M210 78 q -10 -14 0 -28 q 10 -14 0 -28"/>
  </g>
  <!-- cup + saucer -->
  <g transform="translate(196,150)">
    <path d="M-50 -28 H50 a8 8 0 0 1 8 8 v6 a44 44 0 0 1 -44 44 h-26 a44 44 0 0 1 -44 -44 v-6 a8 8 0 0 1 8 -8 Z" fill="#fbf6ec" stroke="#7a5230" stroke-width="4"/>
    <path d="M-12 -28 H40 a30 30 0 0 1 -26 44 h-2 a30 30 0 0 1 -24 -44 Z" fill="#6f4a2a"/>
    <path d="M58 -18 q 30 2 30 26 t -26 22" fill="none" stroke="#7a5230" stroke-width="5"/>
    <ellipse cx="0" cy="74" rx="74" ry="12" fill="#fbf6ec" stroke="#7a5230" stroke-width="4"/>
  </g>
</svg>
