<svg xmlns="http://www.w3.org/2000/svg" xmlns:xlink="http://www.w3.org/1999/xlink" viewBox="4.449 8.173 17.446 10.496"><defs><linearGradient id="gradient-69596c11-c04b-41a9-bc36-3ce38ec881d1_0" x1="0" x2="1" y1="0" y2="1"><stop stop-color="#dfb9a4" offset="0"></stop><stop stop-color="#af877b" offset="1"></stop></linearGradient><linearGradient id="gradient-69596c11-c04b-41a9-bc36-3ce38ec881d1_1" x1="0" x2="1" y1="0" y2="1"><stop stop-color="#c49d8d" offset="0"></stop><stop stop-color="#956c65" offset="1"></stop></linearGradient><linearGradient id="gradient-69596c11-c04b-41a9-bc36-3ce38ec881d1_2" x1="0" x2="1" y1="0" y2="1"><stop stop-color="#d8b19e" offset="0"></stop><stop stop-color="#a67d73" offset="1"></stop></linearGradient><linearGradient id="gradient-69596c11-c04b-41a9-bc36-3ce38ec881d1_3" x1="0" x2="1" y1="0" y2="1"><stop stop-color="#b99284" offset="0"></stop><stop stop-color="#916862" offset="1"></stop></linearGradient></defs><g transform="matrix(0.8571428571428572,0,0,0.8571428571428572,3.8686100378989408,23.159729244099083)"><path d=" M 9.305130371658928 -8.279466277516764 L 9.309300329634548 -8.279466277516764 L 9.699124142968216 -8.279466277516764 L 6.994906395779325 -12.590664765213132 L 1.2601380611160131 -14.529022650008908 L 5.479597473348762 -8.279466277516764 L 9.305130371658928 -8.279466277516764 Z" fill="url(#gradient-69596c11-c04b-41a9-bc36-3ce38ec881d1_0)" transform="matrix(1,0,0,1,0,0)" fill-rule="nonzero"></path><path d=" M 16.227193353799684 -8.279466277516764 L 20.44665276603243 -14.529022650008908 L 14.711884431369116 -12.590664765213132 L 12.007666684180228 -8.279466277516764 L 16.227193353799684 -8.279466277516764 Z" fill="url(#gradient-69596c11-c04b-41a9-bc36-3ce38ec881d1_1)" transform="matrix(1,0,0,1,0,0)" fill-rule="nonzero"></path><path d=" M 13.557411388602999 -12.590664765213132 L 10.853395413574221 -16.900652619948836 L 8.149379438545443 -12.590664765213132 L 10.853395413574221 -8.28067691047743 L 13.557411388602999 -12.590664765213132 Z" fill="url(#gradient-69596c11-c04b-41a9-bc36-3ce38ec881d1_2)" transform="matrix(1,0,0,1,0,0)" fill-rule="nonzero"></path><path d=" M 4.156779191663706 -5.821881367369727 L 17.550011635484744 -5.821881367369727 L 16.235735041911028 -7.47943966267826 L 5.471055785237414 -7.47943966267826 L 4.156779191663706 -5.821881367369727 Z" fill="url(#gradient-69596c11-c04b-41a9-bc36-3ce38ec881d1_3)" transform="matrix(1,0,0,1,0,0)" fill-rule="nonzero"></path></g></svg>